<svg xmlns="http://www.w3.org/2000/svg" viewBox="0 0 512 512" xml:space="preserve"><path fill="#FFE352" d="M416 170c0-86.513-68.663-156.989-154.466-159.906C171.524 7.034 96.04 79.865 96 169.927c-.021 48.045 21.138 91.143 54.649 120.483 12.391 10.849 22.123 24.4 28.058 39.763L208 406h96l29.293-75.827c5.936-15.365 15.67-28.916 28.062-39.767C394.847 261.081 416 218.014 416 170z"/><path fill="#466089" d="M196 406h120v34H196z"/><path fill="#6E83B7" d="M206 440v40l20 22h60l20-22v-40zM292 174c-14.567 0-27.565 6.815-36 17.415-8.435-10.6-21.433-17.415-36-17.415-25.364 0-46 20.636-46 46s20.636 46 46 46v-20c-14.337 0-26-11.664-26-26s11.663-26 26-26 26 11.664 26 26v186h20V220c0-14.336 11.663-26 26-26s26 11.664 26 26-11.663 26-26 26v20c25.364 0 46-20.636 46-46s-20.636-46-46-46z"/></svg>