<svg xmlns="http://www.w3.org/2000/svg" xml:space="preserve" width="655.359" height="655.359" style="shape-rendering:geometricPrecision;text-rendering:geometricPrecision;image-rendering:optimizeQuality;fill-rule:evenodd;clip-rule:evenodd" viewBox="0 0 6.827 6.827"><defs><style>.fil1{fill:#424242}.fil0{fill:#64b5f6}</style></defs><g id="Layer_x0020_1"><path class="fil0" d="M5.973 3.467V5.27a.705.705 0 0 1-.703.703H3.467V3.467h2.506zM4.72 4.18a.15.15 0 1 1 0 .3.15.15 0 0 1 0-.3zm0 .778a.15.15 0 1 1 0 .3.15.15 0 0 1 0-.3zm-.667-.346h1.334v.214H4.053v-.214z"/><path class="fil1" d="M3.467.853H5.27c.387 0 .703.317.703.704V3.36H3.467V.853zM4.053 2h1.334v.213H4.053V2zM3.36 3.467v2.506H1.557a.705.705 0 0 1-.704-.703V3.467H3.36zm-.707.857-.396.396.396.396-.15.15-.396-.395-.396.396-.151-.151.396-.396-.396-.396.15-.15.397.395.396-.396.15.151z"/><path class="fil0" d="M1.549.853H3.36V3.36H.853V1.549c0-.383.313-.696.696-.696zm.664.587V2h.56v.213h-.56v.56H2v-.56h-.56V2H2v-.56h.213z"/></g><path style="fill:none" d="M0 0h6.827v6.827H0z"/></svg>